# xmcd CD database file
#
# Track frame offsets:
#	150
#	25095
#	45833
#	67959
#	90267
#	114057
#	135537
#	153935
#	177073
#	197784
#	220058
#	243571
#
# Disc length: 3506 seconds
#
# Revision: 0
# Processed by: cddbd v1.5.1PL0 Copyright (c) Steve Scherf et al.
# Submitted via: CDex 1.50beta9
#
DISCID=890db00c
DTITLE=Tomas Michaud - New World Flamenco Jazz
DYEAR=2004
DGENRE=Jazz
TTITLE0=Seville
TTITLE1=French Kiss
TTITLE2=Moroccan Lullaby
TTITLE3=Whispers Of Paradise
TTITLE4=No Reason Why
TTITLE5=Beautiful Little Moment
TTITLE6=Awakened By An Angel
TTITLE7=La Vida Maravillosa
TTITLE8=Winds Of Time
TTITLE9=Hoping And Wishing
TTITLE10=Eyes Like The Moon And Stars
TTITLE11=Voodoo Love
EXTD=YEAR: 2004
EXTT0=
EXTT1=
EXTT2=
EXTT3=
EXTT4=
EXTT5=
EXTT6=
EXTT7=
EXTT8=
EXTT9=
EXTT10=
EXTT11=
PLAYORDER=
